<?xml version="1.0" encoding="iso-8859-1"?>
<!-- Generator: Adobe Illustrator 19.0.0, SVG Export Plug-In . SVG Version: 6.00 Build 0)  -->
<svg version="1.1" id="Layer_1" xmlns="http://www.w3.org/2000/svg" xmlns:xlink="http://www.w3.org/1999/xlink" x="0px" y="0px"
	 viewBox="0 0 512.001 512.001" style="enable-background:new 0 0 512.001 512.001;" xml:space="preserve">
<path style="fill:#F4B74A;" d="M242.596,264.448v157.74c0,17.066-13.879,30.945-30.945,30.945H98.587
	c-17.066,0-30.945-13.879-30.945-30.945V240.299c7.805-2.521,16.951-3.381,21.868-1.903l12.447,3.725
	c0.023,0.011,0.046,0.011,0.069,0.023c15.622,4.642,32.298,5.329,48.24,1.96c0.676-0.138,1.341-0.275,2.017-0.401
	c18.441-3.599,37.65-3.198,55.93,1.135c1.387,0.321,2.762,0.665,4.137,1.043l17.811,4.848
	C236.854,252.54,241.519,258.041,242.596,264.448z"/>
<path style="fill:#EFA125;" d="M242.596,264.448v157.74c0,17.066-13.879,30.945-30.945,30.945h-59.369v-209.43
	c18.441-3.599,37.65-3.198,55.93,1.135c1.387,0.321,2.762,0.665,4.137,1.043l17.811,4.848
	C236.854,252.54,241.519,258.041,242.596,264.448z"/>
<path style="fill:#B1CCCD;" d="M69.176,385.198H32.824C14.725,385.198,0,370.474,0,352.376V241.247
	c0-18.099,14.725-32.825,32.824-32.825h36.353c18.099,0,32.824,14.725,32.824,32.825v111.129
	C102.001,370.474,87.276,385.198,69.176,385.198z M34.383,350.815h33.234V242.806H34.383V350.815z"/>
<path style="fill:#BBD7D8;" d="M211.651,168.53H98.587c-17.066,0-30.945,13.879-30.945,30.945v222.713
	c0,17.066,13.879,30.945,30.945,30.945h113.064c17.066,0,30.945-13.879,30.945-30.945V199.475
	C242.596,182.409,228.717,168.53,211.651,168.53z M208.213,418.75H102.025V202.913h106.188V418.75z"/>
<path style="fill:#B1CCCD;" d="M242.596,199.475v222.713c0,17.066-13.879,30.945-30.945,30.945h-59.369V418.75h55.93V202.913h-55.93
	V168.53h59.369C228.717,168.53,242.596,182.409,242.596,199.475z"/>
<path style="fill:#EFA125;" d="M292.632,169.868c-4.4,0-8.799-1.678-12.157-5.036c-6.713-6.713-6.713-17.599,0-24.313l35.277-35.276
	c6.714-6.714,17.599-6.714,24.313,0c6.714,6.713,6.714,17.599,0,24.313l-35.277,35.276
	C301.431,168.189,297.031,169.868,292.632,169.868z"/>
<g>
	<path style="fill:#F4B74A;" d="M202.941,158.726c-5.75,0-11.367-2.884-14.623-8.128l-33.444-53.881
		c-5.007-8.066-2.527-18.666,5.54-23.672c8.069-5.01,18.667-2.526,23.673,5.54l33.444,53.881c5.007,8.066,2.527,18.666-5.54,23.672
		C209.169,157.891,206.035,158.726,202.941,158.726z"/>
	<path style="fill:#F4B74A;" d="M253.807,139.61c-0.515,0-1.033-0.024-1.555-0.07c-9.457-0.848-16.435-9.202-15.587-18.659
		l5.011-55.869c0.848-9.457,9.194-16.432,18.659-15.588c9.457,0.848,16.435,9.202,15.587,18.659l-5.011,55.869
		C270.11,132.888,262.608,139.61,253.807,139.61z"/>
	<path style="fill:#F4B74A;" d="M422.793,224.833l36.12,178.266c3.389,16.726-7.458,33.085-24.184,36.474l-110.812,22.452
		c-16.725,3.389-33.085-7.458-36.474-24.184l-31.324-154.598c-0.217-6.493,3.263-12.811,9.464-15.915l16.494-8.289
		c1.273-0.644,2.552-1.254,3.848-1.844c16.179-7.476,33.88-11.647,51.704-12.16c0.964-0.032,1.92-0.049,2.888-0.058
		c0.688-0.01,1.366-0.008,2.056-0.007c16.294,0.136,32.502-3.849,46.89-11.5c0.021-0.016,0.042-0.021,0.063-0.037l11.459-6.123
		C405.509,224.885,414.643,223.911,422.793,224.833z"/>
</g>
<path style="fill:#EFA125;" d="M422.793,224.833l36.12,178.266c3.389,16.726-7.458,33.085-24.184,36.474L379.316,450.8
	l-41.691-205.765c0.964-0.032,1.92-0.049,2.888-0.058c0.688-0.01,1.366-0.008,2.056-0.007c16.294,0.136,32.502-3.849,46.89-11.5
	c0.021-0.016,0.042-0.021,0.063-0.037l11.459-6.123C405.509,224.885,414.643,223.911,422.793,224.833z"/>
<g>
	<path style="fill:#BBD7D8;" d="M411.373,341.499l-22.068-108.915c-3.594-17.738,7.914-35.095,25.652-38.688l35.629-7.219
		c17.738-3.594,35.094,7.914,38.688,25.652l22.068,108.915c3.594,17.738-7.914,35.094-25.652,38.687l-35.629,7.219
		C432.323,370.745,414.967,359.238,411.373,341.499z M455.886,220.685l-32.571,6.599l21.448,105.858l32.572-6.599L455.886,220.685z"
		/>
	<path style="fill:#BBD7D8;" d="M378.213,160.637L267.4,183.09c-16.725,3.389-27.572,19.748-24.184,36.474l44.226,218.278
		c3.389,16.726,19.748,27.572,36.474,24.184l110.812-22.452c16.725-3.389,27.572-19.748,24.184-36.474l-44.226-218.278
		C411.298,168.095,394.939,157.248,378.213,160.637z M424.532,406.556l-104.073,21.086l-42.861-211.538l104.073-21.086
		L424.532,406.556z"/>
</g>
<path style="fill:#B1CCCD;" d="M414.687,184.821l44.226,218.278c3.389,16.726-7.458,33.085-24.184,36.474l-55.401,11.225
	l-6.827-33.699l52.031-10.542l-42.861-211.538l-52.031,10.542l-6.827-33.699l55.401-11.225
	C394.939,157.248,411.298,168.095,414.687,184.821z"/>
<g>
</g>
<g>
</g>
<g>
</g>
<g>
</g>
<g>
</g>
<g>
</g>
<g>
</g>
<g>
</g>
<g>
</g>
<g>
</g>
<g>
</g>
<g>
</g>
<g>
</g>
<g>
</g>
<g>
</g>
</svg>
