<?xml version="1.0" encoding="iso-8859-1"?>
<!-- Generator: Adobe Illustrator 19.0.0, SVG Export Plug-In . SVG Version: 6.00 Build 0)  -->
<svg version="1.1" id="Layer_1" xmlns="http://www.w3.org/2000/svg" xmlns:xlink="http://www.w3.org/1999/xlink" x="0px" y="0px"
	 viewBox="0 0 512.001 512.001" style="enable-background:new 0 0 512.001 512.001;" xml:space="preserve">
<rect id="SVGCleanerId_0" x="135.913" y="256" style="fill:#FFFFFF;" width="240.166" height="160.111"/>
<rect id="SVGCleanerId_1" x="135.913" y="256" style="fill:#7B7B53;" width="240.166" height="32.023"/>
<rect id="SVGCleanerId_2" x="135.913" y="384.089" style="fill:#7B7B53;" width="240.166" height="32.023"/>
<path style="fill:#1D1D1B;" d="M383.911,256h-15.646v-68.048c0-6.723-5.469-12.192-12.191-12.192h-16.011
	c-15.35,0-27.838-12.488-27.838-27.837v-40.029c0-6.723-5.469-12.191-12.191-12.191c-15.35,0-27.837-12.488-27.837-27.837V39.663
	h-32.389v28.202c0,15.35-12.488,27.837-27.837,27.837c-6.723,0-12.192,5.469-12.192,12.191v40.029
	c0,15.35-12.488,27.837-27.837,27.837h-16.011c-6.722,0-12.191,5.469-12.191,12.192V256H128.09v-68.048
	c0-15.35,12.488-27.838,27.837-27.838h16.011c6.722,0,12.191-5.469,12.191-12.191v-40.029c0-15.35,12.489-27.837,27.838-27.837
	c6.722,0,12.191-5.469,12.191-12.191V24.017h63.681v43.848c0,6.722,5.469,12.191,12.191,12.191c15.35,0,27.837,12.489,27.837,27.837
	v40.029c0,6.722,5.469,12.191,12.192,12.191h16.011c15.35,0,27.837,12.489,27.837,27.838V256z"/>
<rect id="SVGCleanerId_3" x="215.979" style="fill:#1D1D1B;" width="80.055" height="15.646"/>
<g>
	<rect x="135.913" y="408.288" style="fill:#1D1D1B;" width="240.166" height="15.646"/>
	<rect x="135.913" y="280.199" style="fill:#1D1D1B;" width="240.166" height="15.646"/>
	<rect x="135.913" y="376.266" style="fill:#1D1D1B;" width="240.166" height="15.646"/>
</g>
<rect id="SVGCleanerId_4" x="199.958" y="312.221" style="fill:#1D1D1B;" width="112.078" height="15.646"/>
<rect id="SVGCleanerId_5" x="215.979" y="344.243" style="fill:#1D1D1B;" width="16.011" height="15.646"/>
<rect id="SVGCleanerId_6" x="247.991" y="344.243" style="fill:#1D1D1B;" width="16.012" height="15.646"/>
<rect id="SVGCleanerId_7" x="280.023" y="344.243" style="fill:#1D1D1B;" width="16.011" height="15.646"/>
<path style="fill:#FBB049;" d="M356.073,167.937h-16.011c-11.053,0-20.014-8.961-20.014-20.014v-40.029
	c0-11.053-8.961-20.014-20.014-20.014c-11.053,0-20.014-8.961-20.014-20.014V31.84h-48.034v36.025
	c0,11.053-8.961,20.014-20.014,20.014l0,0c-11.053,0-20.014,8.961-20.014,20.014v40.029c0,11.053-8.961,20.014-20.014,20.014
	h-16.011c-11.053,0-20.014,8.961-20.014,20.014v36.025v16.011v234.376c0,16.465,13.347,29.813,29.813,29.813h180.547
	c16.465,0,29.813-13.347,29.813-29.813V239.988v-13.991v-38.046C376.088,176.898,367.127,167.937,356.073,167.937z"/>
<path style="fill:#FA9C1C;" d="M135.916,231.982v242.382c0,16.465,13.347,29.813,29.813,29.813h90.273V31.84h-24.017v36.025
	c0,11.053-8.961,20.014-20.014,20.014l0,0c-11.053,0-20.014,8.961-20.014,20.014v40.029c0,11.053-8.961,20.014-20.014,20.014
	h-16.011c-11.053,0-20.014,8.961-20.014,20.014v52.038"/>
<g>
	<rect id="SVGCleanerId_0_1_" x="135.913" y="256" style="fill:#FFFFFF;" width="240.166" height="160.111"/>
</g>
<g>
	<rect id="SVGCleanerId_1_1_" x="135.913" y="256" style="fill:#7B7B53;" width="240.166" height="32.023"/>
</g>
<g>
	<rect id="SVGCleanerId_2_1_" x="135.913" y="384.089" style="fill:#7B7B53;" width="240.166" height="32.023"/>
</g>
<g>
	<rect id="SVGCleanerId_3_1_" x="215.979" style="fill:#1D1D1B;" width="80.055" height="15.646"/>
</g>
<path style="fill:#1D1D1B;" d="M356.073,160.114h-16.011c-6.723,0-12.192-5.469-12.192-12.191v-40.029
	c0-15.35-12.488-27.837-27.837-27.837c-6.722,0-12.191-5.469-12.191-12.191V24.017H224.16v43.848
	c0,6.722-5.469,12.191-12.191,12.191c-15.35,0-27.838,12.489-27.838,27.837v40.029c0,6.722-5.469,12.191-12.191,12.191h-16.011
	c-15.35,0-27.837,12.489-27.837,27.838v285.381c0,21.321,17.346,38.668,38.668,38.668h178.481c21.321,0,38.668-17.346,38.668-38.668
	V187.951C383.911,172.602,371.423,160.114,356.073,160.114z M368.265,473.332c0,12.694-10.327,23.022-23.022,23.022H166.761
	c-12.694,0-23.022-10.327-23.022-23.022v-49.394h224.525L368.265,473.332L368.265,473.332z M368.265,408.292H143.739v-16.377
	h224.525L368.265,408.292L368.265,408.292z M368.265,376.268H143.739v-80.423h224.525L368.265,376.268L368.265,376.268z
	 M368.265,280.2H143.739v-16.377h224.525L368.265,280.2L368.265,280.2z M143.739,248.177v-60.225
	c0-6.723,5.469-12.192,12.191-12.192h16.011c15.35,0,27.837-12.488,27.837-27.837v-40.029c0-6.723,5.469-12.191,12.192-12.191
	c15.35,0,27.837-12.488,27.837-27.837V39.663h32.389v28.202c0,15.35,12.488,27.837,27.837,27.837
	c6.722,0,12.191,5.469,12.191,12.191v40.029c0,15.35,12.489,27.837,27.838,27.837h16.011c6.722,0,12.191,5.469,12.191,12.192v60.225
	H143.739z"/>
<g>
	<rect id="SVGCleanerId_4_1_" x="199.958" y="312.221" style="fill:#1D1D1B;" width="112.078" height="15.646"/>
</g>
<g>
	<rect id="SVGCleanerId_5_1_" x="215.979" y="344.243" style="fill:#1D1D1B;" width="16.011" height="15.646"/>
</g>
<g>
	<rect id="SVGCleanerId_6_1_" x="247.991" y="344.243" style="fill:#1D1D1B;" width="16.012" height="15.646"/>
</g>
<g>
	<rect id="SVGCleanerId_7_1_" x="280.023" y="344.243" style="fill:#1D1D1B;" width="16.011" height="15.646"/>
</g>
<g>
</g>
<g>
</g>
<g>
</g>
<g>
</g>
<g>
</g>
<g>
</g>
<g>
</g>
<g>
</g>
<g>
</g>
<g>
</g>
<g>
</g>
<g>
</g>
<g>
</g>
<g>
</g>
<g>
</g>
</svg>
